<svg width="100%" height="100%" viewBox="0 0 1440 900" fill="none" xmlns="http://www.w3.org/2000/svg">
  <defs>
    <linearGradient id="bg-medical-vivid" x1="0" y1="0" x2="1440" y2="900" gradientUnits="userSpaceOnUse">
      <stop stop-color="#6ec6ff"/>
      <stop offset="1" stop-color="#e1bee7"/>
    </linearGradient>
    <pattern id="crosses-vivid" width="60" height="60" patternUnits="userSpaceOnUse">
      <rect x="28" y="0" width="4" height="60" fill="#fff" opacity="0.18"/>
      <rect x="0" y="28" width="60" height="4" fill="#fff" opacity="0.18"/>
    </pattern>
  </defs>
  <rect width="1440" height="900" fill="url(#bg-medical-vivid)"/>
  <rect width="1440" height="900" fill="url(#crosses-vivid)"/>
  <g opacity="0.18">
    <circle cx="350" cy="180" r="120" fill="#00bcd4"/>
    <circle cx="1200" cy="700" r="180" fill="#8bc34a"/>
    <rect x="900" y="100" width="200" height="200" rx="40" fill="#fff59d"/>
    <rect x="200" y="600" width="160" height="160" rx="32" fill="#fff59d"/>
  </g>
  <g opacity="0.22">
    <rect x="650" y="350" width="140" height="140" rx="28" fill="#fff"/>
    <circle cx="720" cy="420" r="60" fill="#b3c6e0"/>
    <rect x="700" y="400" width="40" height="40" rx="8" fill="#fff"/>
    <rect x="720" y="380" width="40" height="40" rx="8" fill="#fff"/>
  </g>
  <g opacity="0.25">
    <path d="M 1100 200 Q 1150 250 1200 200 Q 1250 150 1300 200" stroke="#ff4081" stroke-width="8" fill="none"/>
    <rect x="1150" y="170" width="20" height="60" rx="8" fill="#ff4081"/>
    <rect x="1180" y="190" width="60" height="20" rx="8" fill="#ff4081"/>
  </g>
</svg>
